<?xml version="1.0" encoding="utf-8"?>
<!-- Generator: Adobe Illustrator 24.3.0, SVG Export Plug-In . SVG Version: 6.00 Build 0)  -->
<svg version="1.1" id="圖層_1" xmlns="http://www.w3.org/2000/svg" xmlns:xlink="http://www.w3.org/1999/xlink" x="0px" y="0px"
	 viewBox="0 0 84.5 82.1" style="enable-background:new 0 0 84.5 82.1;" xml:space="preserve">
<style type="text/css">
	.st0{fill:#5CAB32;}
</style>
<image style="display:none;overflow:visible;" width="296" height="296" xlink:href="../../../../../../Compal Logo/logo.jpg"  transform="matrix(0.48 0 0 0.48 31.1095 -330.39)">
</image>
<path class="st0" d="M80.2,34.3L70,36c0.3,1.6,0.4,3.2,0.4,4.8c0,15.4-12.5,27.9-27.9,27.9c-15.4,0-27.9-12.5-27.9-27.9
	c0-15.4,12.5-27.9,27.9-27.9c1.7,0,3.3,0.2,4.8,0.4l1.7-10.2c-2.1-0.4-4.3-0.6-6.5-0.6C21.4,2.6,4.3,19.7,4.3,40.8
	c0,21.1,17.1,38.3,38.3,38.3c21.1,0,38.3-17.1,38.3-38.3C80.8,38.6,80.6,36.4,80.2,34.3z M28.8,40.6c0-7.7,6.2-13.9,13.9-13.9
	c0.8,0,1.6,0.1,2.4,0.2l1.7-10.1c-1.3-0.2-2.7-0.4-4.1-0.4c-13.4,0-24.2,10.8-24.2,24.2c0,13.4,10.8,24.2,24.2,24.2
	c13.4,0,24.2-10.8,24.2-24.2c0-1.4-0.1-2.8-0.4-4.1l-10.1,1.6c0.1,0.8,0.2,1.6,0.2,2.5c0,7.7-6.2,13.9-13.9,13.9
	c-1.8,0-3.5-0.3-5.1-1l19.9-20L50,25.9L29.9,46.1C29.2,44.4,28.8,42.5,28.8,40.6z"/>
<g>
</g>
<g>
</g>
<g>
</g>
<g>
</g>
<g>
</g>
<g>
</g>
</svg>
